Coordinates
version=1
nRows=22
nColumns=24
inDegrees=yes

Units are S.I. units (second, meters, Newtons, ...)
Angles are in degrees.

endheader
time	pelvis_tilt	pelvis_list	pelvis_rotation	pelvis_tx	pelvis_ty	pelvis_tz	hip_flexion_r	hip_adduction_r	hip_rotation_r	knee_angle_r	ankle_angle_r	subtalar_angle_r	mtp_angle_r	hip_flexion_l	hip_adduction_l	hip_rotation_l	knee_angle_l	ankle_angle_l	subtalar_angle_l	mtp_angle_l	lumbar_extension	lumbar_bending	lumbar_rotation
      2.89000000	     68.31650074	      1.28678234	     -3.94983751	      0.53865633	      0.96830611	     -0.30063485	      4.13029328	    -15.97420962	     -4.47659738	    -78.11543870	    -26.37826518	      0.00000000	      0.00000000	      2.42331952	     -4.79684053	      1.89218385	    -60.84545503	    -32.27535752	      0.00000000	      0.00000000	      0.00000000	      0.00000000	      0.00000000
      2.90000000	     68.20753381	      1.22778713	     -3.96963651	      0.53883460	      0.96822682	     -0.30060454	      4.25289563	    -15.94923719	     -4.40988171	    -78.32142391	    -26.29640330	      0.00000000	      0.00000000	      2.42477788	     -4.68620214	      2.64010282	    -59.98124912	    -32.19152853	      0.00000000	      0.00000000	      0.00000000	      0.00000000	      0.00000000
      2.91000000	     68.11860624	      1.16588778	     -3.97164582	      0.53898614	      0.96815830	     -0.30051142	      4.34550228	    -15.92976246	     -4.35418626	    -78.45937249	    -26.18662223	      0.00000000	      0.00000000	      2.42671337	     -4.58055265	      3.38608720	    -59.17302184	    -32.11815683	      0.00000000	      0.00000000	      0.00000000	      0.00000000	      0.00000000
      2.92000000	     68.04366353	      1.10762358	     -3.97542834	      0.53910761	      0.96806654	     -0.30048722	      4.41376901	    -15.91063595	     -4.32262968	    -78.52990069	    -26.07166861	      0.00000000	      0.00000000	      2.43382931	     -4.47233152	      4.10727474	    -58.42559758	    -32.04431775	      0.00000000	      0.00000000	      0.00000000	      0.00000000	      0.00000000
      2.93000000	     67.97756155	      1.05542500	     -3.99579219	      0.53920993	      0.96797768	     -0.30050912	      4.46700232	    -15.88810124	     -4.32476591	    -78.53345725	    -25.97587696	      0.00000000	      0.00000000	      2.45147431	     -4.35649429	      4.78112811	    -57.74122086	    -31.96305988	      0.00000000	      0.00000000	      0.00000000	      0.00000000	      0.00000000
      2.94000000	     67.91722099	      1.00832388	     -4.03497180	      0.53930260	      0.96791587	     -0.30049534	      4.51546424	    -15.86246970	     -4.35676043	    -78.47124742	    -25.92476810	      0.00000000	      0.00000000	      2.48376044	     -4.23502368	      5.38909763	    -57.12085889	    -31.87301373	      0.00000000	      0.00000000	      0.00000000	      0.00000000	      0.00000000
      2.95000000	     67.86167071	      0.96573573	     -4.08446474	      0.53937586	      0.96785730	     -0.30045724	      4.56694785	    -15.83563427	     -4.40193708	    -78.34606939	    -25.94013366	      0.00000000	      0.00000000	      2.53240925	     -4.11633603	      5.91808966	    -56.56499583	    -31.77814499	      0.00000000	      0.00000000	      0.00000000	      0.00000000	      0.00000000
      2.96000000	     67.81290881	      0.92719996	     -4.12970079	      0.53941475	      0.96777980	     -0.30041058	      4.62540663	    -15.80964882	     -4.43768129	    -78.16148686	    -26.03188241	      0.00000000	      0.00000000	      2.59610722	     -4.01064891	      6.35960959	    -56.07360580	    -31.68593248	      0.00000000	      0.00000000	      0.00000000	      0.00000000	      0.00000000
      2.97000000	     67.77527570	      0.89219919	     -4.15814990	      0.53941999	      0.96769605	     -0.30031015	      4.68928447	    -15.78465015	     -4.44661643	    -77.92111856	    -26.19035479	      0.00000000	      0.00000000	      2.67060179	     -3.92404224	      6.70767022	    -55.64533169	    -31.60470646	      0.00000000	      0.00000000	      0.00000000	      0.00000000	      0.00000000
      2.98000000	     67.75285305	      0.86192240	     -4.16755617	      0.53940787	      0.96763009	     -0.30013315	      4.74889437	    -15.75671713	     -4.42596048	    -77.62904392	    -26.38401216	      0.00000000	      0.00000000	      2.74968118	     -3.85489505	      6.95724078	    -55.27643261	    -31.54103274	      0.00000000	      0.00000000	      0.00000000	      0.00000000	      0.00000000
      2.99000000	     67.74744159	      0.84001259	     -4.16690370	      0.53938576	      0.96758603	     -0.29995775	      4.78642018	    -15.71956607	     -4.38797070	    -77.29007565	    -26.56582627	      0.00000000	      0.00000000	      2.82585509	     -3.79557045	      7.10448388	    -54.96050696	    -31.49793994	      0.00000000	      0.00000000	      0.00000000	      0.00000000	      0.00000000
      3.00000000	     67.75961766	      0.82984929	     -4.16790016	      0.53933788	      0.96754996	     -0.29988485	      4.78182593	    -15.67070713	     -4.35116429	    -76.90852195	    -26.68731358	      0.00000000	      0.00000000	      2.88961459	     -3.73818968	      7.14834298	    -54.68954269	    -31.47446086	      0.00000000	      0.00000000	      0.00000000	      0.00000000	      0.00000000
      3.01000000	     67.79229860	      0.83049331	     -4.17464108	      0.53925561	      0.96753022	     -0.29987835	      4.72230472	    -15.61656865	     -4.33007957	    -76.48642101	    -26.71443593	      0.00000000	      0.00000000	      2.92850742	     -3.67963032	      7.09185822	    -54.45565919	    -31.46644560	      0.00000000	      0.00000000	      0.00000000	      0.00000000	      0.00000000
      3.02000000	     67.85165530	      0.83815869	     -4.18361894	      0.53915311	      0.96755015	     -0.29983543	      4.60713751	    -15.56846310	     -4.33326283	    -76.02442752	    -26.63805680	      0.00000000	      0.00000000	      2.92838209	     -3.62152021	      6.94176415	    -54.25237813	    -31.46810215	      0.00000000	      0.00000000	      0.00000000	      0.00000000	      0.00000000
      3.03000000	     67.94405910	      0.85031411	     -4.19101208	      0.53904447	      0.96761112	     -0.29975160	      4.44514894	    -15.53375608	     -4.36649189	    -75.52469961	    -26.47544478	      0.00000000	      0.00000000	      2.87734534	     -3.56638009	      6.70666015	    -54.07498994	    -31.47356973	      0.00000000	      0.00000000	      0.00000000	      0.00000000	      0.00000000
      3.04000000	     68.07243034	      0.86612103	     -4.19620322	      0.53892893	      0.96769423	     -0.29970030	      4.24907202	    -15.51231890	     -4.43251807	    -74.99223322	    -26.26394711	      0.00000000	      0.00000000	      2.77015590	     -3.51491879	      6.39552537	    -53.92057298	    -31.47810547	      0.00000000	      0.00000000	      0.00000000	      0.00000000	      0.00000000
      3.05000000	     68.23412581	      0.88443346	     -4.19983511	      0.53879628	      0.96778449	     -0.29971536	      4.03105461	    -15.49935722	     -4.52738285	    -74.43363727	    -26.04993778	      0.00000000	      0.00000000	      2.61007122	     -3.46660426	      6.01746756	    -53.78821583	    -31.47877006	      0.00000000	      0.00000000	      0.00000000	      0.00000000	      0.00000000
      3.06000000	     68.42116270	      0.90245330	     -4.20126172	      0.53864532	      0.96789344	     -0.29973679	      3.80090018	    -15.48972014	     -4.63896370	    -73.85485555	    -25.87663339	      0.00000000	      0.00000000	      2.40737555	     -3.42124631	      5.58208645	    -53.67924121	    -31.47464947	      0.00000000	      0.00000000	      0.00000000	      0.00000000	      0.00000000
      3.07000000	     68.62185915	      0.91756901	     -4.20005419	      0.53848698	      0.96803296	     -0.29971524	      3.56576552	    -15.47877364	     -4.75162966	    -73.25998149	    -25.77398211	      0.00000000	      0.00000000	      2.17580215	     -3.37918611	      5.09966073	    -53.59698378	    -31.46669922	      0.00000000	      0.00000000	      0.00000000	      0.00000000	      0.00000000
      3.08000000	     68.82397625	      0.92886931	     -4.19788638	      0.53832938	      0.96818277	     -0.29969384	      3.33115681	    -15.46202100	     -4.85281000	    -72.65118249	    -25.75314299	      0.00000000	      0.00000000	      1.92842162	     -3.34028235	      4.58109083	    -53.54602924	    -31.45729636	      0.00000000	      0.00000000	      0.00000000	      0.00000000	      0.00000000
      3.09000000	     69.01900418	      0.93528159	     -4.19685926	      0.53817123	      0.96831210	     -0.29972419	      3.10271771	    -15.43660524	     -4.93601838	    -72.02909848	    -25.80648200	      0.00000000	      0.00000000	      1.67454453	     -3.30311672	      4.03793543	    -53.53098132	    -31.44961163	      0.00000000	      0.00000000	      0.00000000	      0.00000000	      0.00000000
      3.10000000	     69.20468520	      0.93417275	     -4.19785940	      0.53801054	      0.96842289	     -0.29977969	      2.88581919	    -15.40214935	     -5.00099474	    -71.39435242	    -25.91194998	      0.00000000	      0.00000000	      1.41894772	     -3.26502424	      3.48255359	    -53.55484680	    -31.44693561	      0.00000000	      0.00000000	      0.00000000	      0.00000000	      0.00000000
